<svg xmlns="http://www.w3.org/2000/svg" width="1024" height="1024" viewBox="0 0 1024 1024" role="img" aria-label="PodsNow.">
  <title>PodsNow.</title>
  <!-- scripts/brand/generate.py が生成。直接編集せず geometry.py を直すこと。 -->
  <rect width="1024" height="1024" fill="#1F5FD6"/>
  <path fill="#F3EFE6" d="M255.17 279.77Q305.63 279.77 325.4 297.65Q345.18 315.52 345.18 347.97Q345.18 370.28 337.32 385.87Q329.46 401.47 309.68 410.21Q289.91 418.96 255.17 418.96L202.44 418.96L202.44 463.58L140.07 463.58Q142.1 414.4 142.1 371.55Q142.1 328.7 140.07 279.52L202.44 279.52L202.44 279.77ZM237.43 370.03Q258.47 370.03 268.99 368.38Q279.51 366.73 283.7 362.42Q287.88 358.11 287.88 349.75Q287.88 341.38 283.95 337.2Q280.02 333.01 269.5 331.49Q258.98 329.97 237.43 329.97L202.44 329.97L202.44 370.03ZM350.75 393.86Q350.75 362.17 371.16 342.39Q391.57 322.62 434.93 322.62Q464.08 322.62 483.73 332.13Q503.38 341.63 512.76 357.73Q522.14 373.83 522.14 393.86Q522.14 426.57 500.46 446.34Q478.79 466.12 434.93 466.12Q391.57 466.12 371.16 446.21Q350.75 426.31 350.75 393.86ZM468.65 394.11Q468.65 381.69 460.53 373.7Q452.42 365.72 435.94 365.72Q419.46 365.72 411.86 373.58Q404.25 381.44 404.25 394.11Q404.25 407.3 411.86 415.16Q419.46 423.02 435.94 423.02Q452.42 423.02 460.53 415.16Q468.65 407.3 468.65 394.11ZM699.61 364.96Q699.61 415.92 701.13 463.58L643.84 463.58L644.6 433.16Q637.24 450.14 623.3 458.13Q609.36 466.12 590.34 466.12Q573.86 466.12 560.68 456.74Q547.49 447.36 540.14 431.26Q532.79 415.16 532.79 395.89Q532.79 376.87 540.14 360.01Q547.49 343.15 560.8 332.89Q574.11 322.62 591.1 322.62Q610.88 322.62 624.95 330.86Q639.02 339.1 645.86 356.34Q645.86 341.89 644.85 309.94Q643.84 279.01 643.84 266.33L701.13 266.33Q699.61 313.49 699.61 364.96ZM645.1 394.37Q645.1 380.93 637.24 374.59Q629.38 368.25 617.47 368.25Q606.06 368.25 598.33 375.48Q590.59 382.7 590.59 394.37Q590.59 407.3 597.69 415.41Q604.79 423.52 616.96 423.52Q629.38 423.52 637.24 416.55Q645.1 409.58 645.1 394.37ZM714.82 442.03L741.45 405.78Q753.11 414.14 769.59 418.83Q786.07 423.52 797.98 423.52Q809.39 423.52 815.6 420.35Q821.81 417.18 821.81 412.11Q821.81 408.06 818.77 405.78Q815.73 403.49 810.41 403.49Q807.11 403.49 802.93 403.75Q798.74 404 796.21 404.25Q783.02 405.78 769.08 405.78Q746.52 405.78 732.44 397.28Q718.37 388.79 718.37 369.52Q718.37 347.21 739.42 334.91Q760.46 322.62 801.28 322.62Q821.31 322.62 841.72 328.32Q862.13 334.03 877.84 345.44L848.69 374.85Q834.24 367.24 821.69 364.07Q809.14 360.9 796.46 360.9Q787.59 360.9 781.25 364.45Q774.91 368 774.91 372.56Q774.91 376.11 777.57 378.14Q780.24 380.17 784.55 380.17Q788.86 380.17 796.46 379.41Q814.97 378.14 824.1 378.14Q850.46 378.14 864.91 387.01Q879.37 395.89 879.37 414.14Q879.37 441.52 858.07 453.82Q836.77 466.12 799.25 466.12Q777.95 466.12 756.02 460.16Q734.09 454.2 714.82 442.03ZM375.49 552.33Q373.53 599.55 373.53 653.46Q373.53 707.66 375.49 754.87L275.48 754.87L207.87 602.34L212.9 754.87L141.1 754.87Q143.34 700.68 143.34 653.46Q143.34 606.53 141.1 552.33L243.91 552.33L311.79 709.06L307.05 552.33ZM387.78 678.05Q387.78 643.13 410.27 621.34Q432.76 599.55 480.53 599.55Q512.66 599.55 534.31 610.02Q555.96 620.5 566.29 638.24Q576.63 655.98 576.63 678.05Q576.63 714.09 552.74 735.88Q528.86 757.67 480.53 757.67Q432.76 757.67 410.27 735.74Q387.78 713.81 387.78 678.05ZM517.68 678.33Q517.68 664.64 508.75 655.84Q499.81 647.04 481.65 647.04Q463.49 647.04 455.11 655.7Q446.73 664.36 446.73 678.33Q446.73 692.85 455.11 701.51Q463.49 710.17 481.65 710.17Q499.81 710.17 508.75 701.51Q517.68 692.85 517.68 678.33ZM742.85 711.85L766.88 602.34L822.47 602.34L791.46 754.87L716.87 754.87L699.27 683.63L679.44 754.87L607.64 754.87L576.63 602.34L632.22 602.34L655.97 711.57L672.17 602.34L727.21 602.34Z"/>
  <rect x="825.26" y="696.21" width="58.67" height="58.67" rx="7.82" fill="#161616"/>
  <rect x="835.32" y="706.26" width="38.55" height="38.55" rx="2.79" fill="#FFE34D"/>
</svg>
